<?xml version="1.0" encoding="utf-8"?>
<!-- Generator: Adobe Illustrator 23.0.1, SVG Export Plug-In . SVG Version: 6.00 Build 0)  -->
<svg version="1.1" id="Layer_1" xmlns="http://www.w3.org/2000/svg" xmlns:xlink="http://www.w3.org/1999/xlink" x="0px" y="0px"
	 viewBox="0 0 120 120" style="enable-background:new 0 0 120 120;" xml:space="preserve">
<style type="text/css">
	.st0{clip-path:url(#SVGID_2_);}
	.st1{clip-path:url(#SVGID_4_);fill:#A89060;}
	.st2{clip-path:url(#SVGID_6_);}
	.st3{clip-path:url(#SVGID_8_);fill:#A89060;}
	.st4{clip-path:url(#SVGID_10_);}
	.st5{clip-path:url(#SVGID_12_);fill:#A89060;}
	.st6{clip-path:url(#SVGID_14_);}
	.st7{clip-path:url(#SVGID_16_);fill:#A89060;}
	.st8{clip-path:url(#SVGID_18_);}
	.st9{clip-path:url(#SVGID_20_);fill:#A89060;}
	.st10{clip-path:url(#SVGID_22_);}
	.st11{clip-path:url(#SVGID_24_);fill:#A89060;}
	.st12{clip-path:url(#SVGID_26_);}
	.st13{clip-path:url(#SVGID_28_);fill:#A89060;}
	.st14{clip-path:url(#SVGID_30_);}
	.st15{clip-path:url(#SVGID_32_);fill:#A89060;}
	.st16{clip-path:url(#SVGID_34_);}
	.st17{clip-path:url(#SVGID_36_);fill:#A89060;}
	.st18{clip-path:url(#SVGID_38_);}
	.st19{clip-path:url(#SVGID_40_);enable-background:new    ;}
	.st20{clip-path:url(#SVGID_42_);}
	.st21{clip-path:url(#SVGID_44_);}
	.st22{clip-path:url(#SVGID_46_);fill:#A89060;}
	.st23{clip-path:url(#SVGID_48_);}
	.st24{clip-path:url(#SVGID_50_);fill:#A89060;}
	.st25{clip-path:url(#SVGID_52_);}
	.st26{clip-path:url(#SVGID_54_);fill:#A89060;}
	.st27{clip-path:url(#SVGID_56_);}
	.st28{clip-path:url(#SVGID_58_);fill:#A89060;}
	.st29{clip-path:url(#SVGID_60_);}
	.st30{clip-path:url(#SVGID_62_);fill:#A89060;}
	.st31{clip-path:url(#SVGID_64_);}
	.st32{clip-path:url(#SVGID_66_);fill:#A89060;}
	.st33{clip-path:url(#SVGID_68_);}
	.st34{clip-path:url(#SVGID_70_);fill:#A89060;}
	.st35{clip-path:url(#SVGID_72_);}
	.st36{clip-path:url(#SVGID_74_);fill:#A89060;}
	.st37{clip-path:url(#SVGID_76_);}
	.st38{clip-path:url(#SVGID_78_);fill:#A89060;}
	.st39{clip-path:url(#SVGID_80_);}
	.st40{clip-path:url(#SVGID_82_);fill:#A89060;}
	.st41{clip-path:url(#SVGID_84_);}
	.st42{clip-path:url(#SVGID_86_);fill:#A89060;}
	.st43{clip-path:url(#SVGID_88_);}
	.st44{clip-path:url(#SVGID_90_);fill:#A89060;}
	.st45{clip-path:url(#SVGID_92_);}
	.st46{clip-path:url(#SVGID_94_);fill:#A89060;}
</style>
<g>
	<g>
		<defs>
			<path id="SVGID_1_" d="M36.98,76.06c-0.44-0.43-0.93-0.77-1.5-1.02c-0.58-0.25-1.2-0.38-1.85-0.38c-0.63,0-1.23,0.12-1.78,0.34
				c-0.54,0.22-1.02,0.5-1.43,0.9c-0.4,0.4-0.71,0.86-0.94,1.39c-0.24,0.52-0.36,1.12-0.36,1.76c0,0.62,0.12,1.18,0.37,1.71
				c0.25,0.53,0.57,0.99,0.99,1.36c0.43,0.37,0.9,0.68,1.44,0.87c0.54,0.22,1.12,0.34,1.72,0.34c0.75,0,1.45-0.15,2.06-0.5
				c0.62-0.3,1.15-0.74,1.58-1.29l1.02,1.39c-0.59,0.65-1.29,1.14-2.08,1.52c-0.8,0.37-1.68,0.55-2.61,0.55
				c-0.87,0-1.67-0.15-2.42-0.47c-0.74-0.3-1.4-0.74-1.95-1.29c-0.55-0.56-0.98-1.21-1.31-1.95c-0.31-0.77-0.46-1.55-0.46-2.42
				c0-0.84,0.16-1.61,0.49-2.35c0.33-0.71,0.78-1.33,1.35-1.86c0.56-0.53,1.23-0.93,1.97-1.24c0.75-0.28,1.52-0.43,2.34-0.43
				c0.87,0,1.67,0.15,2.44,0.49c0.75,0.31,1.41,0.74,1.97,1.3L36.98,76.06z"/>
		</defs>
		<clipPath id="SVGID_2_">
			<use xlink:href="#SVGID_1_"  style="overflow:visible;"/>
		</clipPath>
		<g class="st0">
			<defs>
				<rect id="SVGID_3_" x="-204.85" y="-29.84" width="2583.23" height="6721.78"/>
			</defs>
			<clipPath id="SVGID_4_">
				<use xlink:href="#SVGID_3_"  style="overflow:visible;"/>
			</clipPath>
			<rect x="20.75" y="66.28" class="st1" width="24.29" height="25.46"/>
		</g>
	</g>
	<g>
		<defs>
			<path id="SVGID_5_" d="M47.7,81.39l-2.51-4.8l-2.53,5.45c0.2-0.15,0.55-0.31,1.01-0.43c0.48-0.13,1.12-0.22,1.91-0.22H47.7z
				 M43.72,73.12h1.84l5.51,11.65H49.2l-0.75-1.68h-3.48c-0.53,0-0.99,0.04-1.4,0.1c-0.4,0.09-0.76,0.15-1.04,0.27
				c-0.28,0.13-0.51,0.25-0.68,0.38c-0.17,0.12-0.29,0.24-0.36,0.37l-0.29,0.56h-1.82l4.96-10.22L43.72,73.12z"/>
		</defs>
		<clipPath id="SVGID_6_">
			<use xlink:href="#SVGID_5_"  style="overflow:visible;"/>
		</clipPath>
		<g class="st2">
			<defs>
				<rect id="SVGID_7_" x="-204.85" y="-29.84" width="2583.23" height="6721.78"/>
			</defs>
			<clipPath id="SVGID_8_">
				<use xlink:href="#SVGID_7_"  style="overflow:visible;"/>
			</clipPath>
			<rect x="32.66" y="66.39" class="st3" width="25.14" height="25.1"/>
		</g>
	</g>
	<g>
		<defs>
			<path id="SVGID_9_" d="M61.6,81.3c0,0.55-0.13,1.08-0.39,1.54c-0.27,0.47-0.62,0.84-1.09,1.18c-0.45,0.31-0.97,0.56-1.61,0.75
				c-0.62,0.16-1.3,0.25-2.02,0.25c-0.45,0-0.88-0.06-1.32-0.15c-0.43-0.13-0.85-0.28-1.27-0.47c-0.4-0.19-0.79-0.44-1.15-0.74
				c-0.37-0.31-0.7-0.62-0.98-0.99l1.19-1.11c0.16,0.18,0.34,0.36,0.56,0.58c0.22,0.22,0.47,0.4,0.76,0.59
				c0.29,0.15,0.62,0.3,0.97,0.43c0.36,0.13,0.76,0.19,1.23,0.19c0.42,0,0.82-0.06,1.24-0.13c0.4-0.09,0.78-0.22,1.09-0.38
				c0.33-0.18,0.57-0.4,0.78-0.64c0.18-0.25,0.28-0.56,0.28-0.93c0-0.43-0.1-0.77-0.3-0.99c-0.2-0.24-0.46-0.4-0.78-0.52
				c-0.31-0.09-0.69-0.15-1.09-0.19c-0.42-0.03-0.82-0.03-1.23-0.03c-1.38,0-2.44-0.25-3.15-0.74c-0.71-0.5-1.07-1.21-1.07-2.2
				c0-0.46,0.09-0.93,0.31-1.36c0.2-0.43,0.5-0.8,0.87-1.14c0.37-0.34,0.82-0.59,1.33-0.77c0.53-0.21,1.09-0.3,1.71-0.3
				c0.87,0,1.68,0.11,2.44,0.4c0.76,0.24,1.48,0.71,2.16,1.39l-1.04,1.24c-0.31-0.25-0.59-0.46-0.87-0.62
				c-0.27-0.19-0.54-0.34-0.82-0.43c-0.28-0.1-0.56-0.19-0.87-0.25c-0.29-0.04-0.64-0.06-0.99-0.06c-0.34,0-0.63,0.06-0.93,0.15
				c-0.28,0.13-0.55,0.25-0.75,0.44c-0.21,0.15-0.39,0.37-0.51,0.59c-0.13,0.25-0.19,0.46-0.19,0.71c0,0.19,0.05,0.34,0.11,0.49
				c0.08,0.16,0.2,0.31,0.39,0.44c0.18,0.13,0.43,0.22,0.74,0.28c0.31,0.06,0.71,0.13,1.21,0.13c1,0,1.83,0.06,2.47,0.22
				c0.65,0.16,1.17,0.37,1.55,0.68c0.37,0.27,0.64,0.65,0.79,1.05C61.52,80.27,61.6,80.74,61.6,81.3"/>
		</defs>
		<clipPath id="SVGID_10_">
			<use xlink:href="#SVGID_9_"  style="overflow:visible;"/>
		</clipPath>
		<g class="st4">
			<defs>
				<rect id="SVGID_11_" x="-204.85" y="-29.84" width="2583.23" height="6721.78"/>
			</defs>
			<clipPath id="SVGID_12_">
				<use xlink:href="#SVGID_11_"  style="overflow:visible;"/>
			</clipPath>
			<rect x="45.05" y="66.28" class="st5" width="23.28" height="25.46"/>
		</g>
	</g>
	<g>
		<defs>
			<path id="SVGID_13_" d="M71.2,81.39l-2.5-4.8l-2.53,5.45c0.2-0.15,0.53-0.31,1-0.43c0.46-0.13,1.1-0.22,1.9-0.22H71.2z
				 M67.24,73.12h1.84l5.51,11.65h-1.87l-0.76-1.68h-3.47c-0.53,0-0.98,0.04-1.4,0.1c-0.4,0.09-0.75,0.15-1.02,0.27
				c-0.3,0.13-0.52,0.25-0.7,0.38c-0.17,0.12-0.3,0.24-0.36,0.37l-0.27,0.56H62.9l4.95-10.22L67.24,73.12z"/>
		</defs>
		<clipPath id="SVGID_14_">
			<use xlink:href="#SVGID_13_"  style="overflow:visible;"/>
		</clipPath>
		<g class="st6">
			<defs>
				<rect id="SVGID_15_" x="-204.85" y="-29.84" width="2583.23" height="6721.78"/>
			</defs>
			<clipPath id="SVGID_16_">
				<use xlink:href="#SVGID_15_"  style="overflow:visible;"/>
			</clipPath>
			<rect x="56.17" y="66.39" class="st7" width="25.14" height="25.1"/>
		</g>
	</g>
	<g>
		<defs>
			<path id="SVGID_17_" d="M37.15,96.43c0,0.56-0.13,1.09-0.4,1.55c-0.25,0.46-0.61,0.87-1.07,1.18c-0.45,0.34-0.99,0.59-1.61,0.74
				c-0.62,0.19-1.3,0.28-2.03,0.28c-0.43,0-0.86-0.06-1.3-0.19c-0.43-0.09-0.85-0.24-1.28-0.47c-0.4-0.18-0.79-0.43-1.15-0.71
				c-0.37-0.31-0.7-0.65-0.98-0.99l1.2-1.15c0.15,0.18,0.34,0.4,0.54,0.58c0.24,0.21,0.48,0.4,0.76,0.59c0.3,0.18,0.62,0.33,1,0.46
				c0.35,0.09,0.77,0.16,1.21,0.16c0.42,0,0.84-0.03,1.24-0.12c0.42-0.06,0.78-0.19,1.1-0.37c0.31-0.15,0.58-0.37,0.76-0.62
				c0.2-0.28,0.3-0.59,0.3-0.93c0-0.43-0.11-0.77-0.3-1.02c-0.21-0.22-0.47-0.4-0.8-0.5c-0.31-0.12-0.67-0.19-1.07-0.19
				c-0.42-0.03-0.83-0.03-1.24-0.03c-1.38,0-2.42-0.25-3.13-0.74c-0.73-0.49-1.07-1.24-1.07-2.23c0-0.46,0.09-0.9,0.31-1.34
				c0.2-0.43,0.5-0.83,0.87-1.14c0.37-0.34,0.82-0.62,1.34-0.8c0.51-0.19,1.08-0.29,1.69-0.29c0.87,0,1.69,0.13,2.45,0.38
				c0.75,0.28,1.48,0.74,2.16,1.42l-1.04,1.21c-0.31-0.25-0.59-0.43-0.87-0.61c-0.28-0.19-0.54-0.31-0.82-0.4
				c-0.28-0.13-0.57-0.19-0.87-0.25c-0.3-0.06-0.64-0.06-1.01-0.06c-0.32,0-0.62,0.03-0.92,0.15c-0.27,0.1-0.54,0.22-0.76,0.4
				c-0.2,0.19-0.37,0.37-0.5,0.62c-0.12,0.21-0.18,0.46-0.18,0.68c0,0.19,0.03,0.38,0.11,0.53c0.06,0.16,0.21,0.28,0.39,0.4
				c0.19,0.13,0.43,0.23,0.75,0.32c0.31,0.07,0.71,0.09,1.2,0.09c1.01,0,1.83,0.1,2.48,0.25c0.65,0.16,1.16,0.37,1.55,0.65
				c0.37,0.31,0.64,0.65,0.78,1.09C37.07,95.42,37.15,95.91,37.15,96.43"/>
		</defs>
		<clipPath id="SVGID_18_">
			<use xlink:href="#SVGID_17_"  style="overflow:visible;"/>
		</clipPath>
		<g class="st8">
			<defs>
				<rect id="SVGID_19_" x="-204.85" y="-29.84" width="2583.23" height="6721.78"/>
			</defs>
			<clipPath id="SVGID_20_">
				<use xlink:href="#SVGID_19_"  style="overflow:visible;"/>
			</clipPath>
			<rect x="20.6" y="81.44" class="st9" width="23.28" height="25.47"/>
		</g>
	</g>
	<g>
		<defs>
			<path id="SVGID_21_" d="M46.76,96.56l-2.52-4.82l-2.53,5.48c0.2-0.19,0.54-0.34,1.01-0.46c0.48-0.13,1.1-0.19,1.91-0.19H46.76z
				 M42.77,88.29h1.85l5.51,11.61h-1.88l-0.75-1.67h-3.49c-0.51,0-0.98,0.03-1.38,0.12c-0.4,0.06-0.74,0.15-1.04,0.28
				c-0.28,0.09-0.51,0.21-0.69,0.36c-0.17,0.13-0.3,0.25-0.36,0.37l-0.3,0.53h-1.81l4.97-10.21L42.77,88.29z"/>
		</defs>
		<clipPath id="SVGID_22_">
			<use xlink:href="#SVGID_21_"  style="overflow:visible;"/>
		</clipPath>
		<g class="st10">
			<defs>
				<rect id="SVGID_23_" x="-204.85" y="-29.84" width="2583.23" height="6721.78"/>
			</defs>
			<clipPath id="SVGID_24_">
				<use xlink:href="#SVGID_23_"  style="overflow:visible;"/>
			</clipPath>
			<rect x="31.71" y="81.57" class="st11" width="25.14" height="25.06"/>
		</g>
	</g>
	<g>
		<defs>
			<path id="SVGID_25_" d="M58.24,93.37c1.12,0,1.68-0.52,1.68-1.62c0-0.59-0.14-0.99-0.42-1.24c-0.29-0.24-0.71-0.34-1.26-0.34
				h-4.2v3.66c0.34-0.22,0.7-0.34,1.07-0.4c0.36-0.03,0.73-0.06,1.1-0.06H58.24z M52.36,99.9V88.47h5.9c0.49,0,0.94,0.1,1.36,0.22
				c0.42,0.16,0.78,0.37,1.07,0.65c0.27,0.28,0.51,0.62,0.66,1.03c0.16,0.4,0.24,0.87,0.24,1.39c0,0.5-0.08,0.96-0.24,1.37
				c-0.15,0.4-0.39,0.74-0.66,1.02c-0.3,0.31-0.66,0.53-1.07,0.68c-0.42,0.16-0.87,0.25-1.39,0.25h-2.03c-0.35,0-0.72,0-1.1,0.06
				c-0.37,0.05-0.73,0.18-1.07,0.36v4.4H52.36z"/>
		</defs>
		<clipPath id="SVGID_26_">
			<use xlink:href="#SVGID_25_"  style="overflow:visible;"/>
		</clipPath>
		<g class="st12">
			<defs>
				<rect id="SVGID_27_" x="-204.85" y="-29.84" width="2583.23" height="6721.78"/>
			</defs>
			<clipPath id="SVGID_28_">
				<use xlink:href="#SVGID_27_"  style="overflow:visible;"/>
			</clipPath>
			<rect x="45.63" y="81.75" class="st13" width="22.69" height="24.88"/>
		</g>
	</g>
	<g>
		<defs>
			<path id="SVGID_29_" d="M73.91,94.11c0-0.62-0.13-1.18-0.38-1.73c-0.23-0.5-0.56-0.96-0.97-1.34c-0.43-0.4-0.89-0.68-1.43-0.89
				c-0.54-0.22-1.13-0.31-1.74-0.31c-0.64,0-1.23,0.09-1.79,0.31c-0.54,0.21-1.02,0.52-1.42,0.89c-0.4,0.4-0.73,0.87-0.96,1.4
				c-0.23,0.55-0.34,1.14-0.34,1.79c0,0.58,0.12,1.18,0.37,1.67c0.24,0.56,0.57,0.99,1,1.36c0.41,0.37,0.89,0.68,1.44,0.9
				c0.54,0.22,1.12,0.31,1.72,0.31c0.6,0,1.2-0.09,1.74-0.34c0.54-0.21,1.03-0.52,1.43-0.89c0.4-0.41,0.72-0.87,0.95-1.4
				C73.78,95.32,73.91,94.73,73.91,94.11 M75.58,94.2c0,0.87-0.18,1.64-0.51,2.35c-0.33,0.74-0.78,1.37-1.33,1.89
				c-0.56,0.55-1.23,0.96-1.97,1.27c-0.75,0.31-1.54,0.46-2.38,0.46c-0.87,0-1.68-0.19-2.42-0.49c-0.75-0.31-1.39-0.74-1.96-1.3
				c-0.54-0.55-0.99-1.21-1.3-1.95c-0.31-0.74-0.48-1.55-0.48-2.41c0-0.84,0.17-1.61,0.49-2.33c0.34-0.71,0.79-1.33,1.36-1.85
				c0.56-0.53,1.21-0.96,1.97-1.24c0.75-0.31,1.54-0.44,2.35-0.44c0.85,0,1.66,0.13,2.4,0.47c0.75,0.28,1.4,0.71,1.96,1.27
				c0.56,0.55,1.01,1.18,1.33,1.92C75.41,92.56,75.58,93.37,75.58,94.2"/>
		</defs>
		<clipPath id="SVGID_30_">
			<use xlink:href="#SVGID_29_"  style="overflow:visible;"/>
		</clipPath>
		<g class="st14">
			<defs>
				<rect id="SVGID_31_" x="-204.85" y="-29.84" width="2583.23" height="6721.78"/>
			</defs>
			<clipPath id="SVGID_32_">
				<use xlink:href="#SVGID_31_"  style="overflow:visible;"/>
			</clipPath>
			<rect x="56.5" y="81.44" class="st15" width="25.81" height="25.47"/>
		</g>
	</g>
	<g>
		<defs>
			<path id="SVGID_33_" d="M80.14,93.93c0.34-0.19,0.69-0.31,1.05-0.38c0.36-0.03,0.73-0.06,1.1-0.06h2.19
				c0.57,0,1.04-0.12,1.39-0.41c0.37-0.28,0.54-0.71,0.54-1.33c0-0.27-0.05-0.52-0.15-0.74c-0.11-0.19-0.24-0.37-0.43-0.5
				c-0.17-0.12-0.37-0.21-0.61-0.24c-0.23-0.06-0.49-0.1-0.75-0.1h-4.34V93.93z M83.64,95.17h-1.36c-0.35,0-0.73,0.03-1.1,0.09
				c-0.36,0.06-0.72,0.19-1.05,0.37v4.27h-1.68V88.47h6.02c0.53,0,1.01,0.1,1.44,0.22c0.45,0.16,0.82,0.37,1.15,0.65
				c0.33,0.31,0.58,0.65,0.76,1.09c0.17,0.4,0.26,0.9,0.26,1.42c0,0.87-0.23,1.58-0.71,2.13c-0.46,0.56-1.11,0.93-1.94,1.12
				l0.88,1.83c0.18,0.28,0.34,0.49,0.48,0.65c0.15,0.15,0.27,0.3,0.4,0.4c0.12,0.09,0.24,0.15,0.39,0.19
				c0.14,0.03,0.29,0.07,0.48,0.07l0.53-0.04v1.71c-0.31,0-0.65,0-0.98-0.03c-0.34,0-0.65-0.06-0.96-0.19
				c-0.3-0.12-0.61-0.31-0.88-0.52c-0.28-0.25-0.52-0.62-0.73-1.05L83.64,95.17z"/>
		</defs>
		<clipPath id="SVGID_34_">
			<use xlink:href="#SVGID_33_"  style="overflow:visible;"/>
		</clipPath>
		<g class="st16">
			<defs>
				<rect id="SVGID_35_" x="-204.85" y="-29.84" width="2583.23" height="6721.78"/>
			</defs>
			<clipPath id="SVGID_36_">
				<use xlink:href="#SVGID_35_"  style="overflow:visible;"/>
			</clipPath>
			<rect x="71.73" y="81.75" class="st17" width="23.59" height="24.88"/>
		</g>
	</g>
	<g>
		<defs>
			<rect id="SVGID_37_" x="10.42" y="5.14" width="99.16" height="109.72"/>
		</defs>
		<clipPath id="SVGID_38_">
			<use xlink:href="#SVGID_37_"  style="overflow:visible;"/>
		</clipPath>
		<g class="st18">
			<defs>
				<rect id="SVGID_39_" x="-204.85" y="-29.84" width="2583.23" height="6721.78"/>
			</defs>
			<clipPath id="SVGID_40_">
				<use xlink:href="#SVGID_39_"  style="overflow:visible;"/>
			</clipPath>
			<g class="st19">
				<g>
					<defs>
						<rect id="SVGID_41_" x="10.42" y="5.14" width="99.56" height="110.33"/>
					</defs>
					<clipPath id="SVGID_42_">
						<use xlink:href="#SVGID_41_"  style="overflow:visible;"/>
					</clipPath>
					<g class="st20">
						<defs>
							<rect id="SVGID_43_" x="91.03" y="88.47" width="1.65" height="11.43"/>
						</defs>
						<clipPath id="SVGID_44_">
							<use xlink:href="#SVGID_43_"  style="overflow:visible;"/>
						</clipPath>
						<g class="st21">
							<defs>
								<rect id="SVGID_45_" x="10.42" y="5.14" width="99.56" height="110.33"/>
							</defs>
							<clipPath id="SVGID_46_">
								<use xlink:href="#SVGID_45_"  style="overflow:visible;"/>
							</clipPath>
							<rect x="84.3" y="81.75" class="st22" width="15.1" height="24.88"/>
						</g>
					</g>
					<g class="st20">
						<defs>
							<polygon id="SVGID_47_" points="91.06,15.97 91.89,16.93 108.61,16.93 108.61,113.87 11.38,113.87 11.38,16.93 28.17,16.93 
								29.09,15.97 10.42,15.97 10.42,114.86 109.58,114.86 109.58,15.97 							"/>
						</defs>
						<clipPath id="SVGID_48_">
							<use xlink:href="#SVGID_47_"  style="overflow:visible;"/>
						</clipPath>
						<g class="st23">
							<defs>
								<rect id="SVGID_49_" x="10.42" y="5.14" width="99.56" height="110.33"/>
							</defs>
							<clipPath id="SVGID_50_">
								<use xlink:href="#SVGID_49_"  style="overflow:visible;"/>
							</clipPath>
							<rect x="3.69" y="9.25" class="st24" width="112.61" height="112.34"/>
						</g>
					</g>
					<g class="st20">
						<defs>
							<path id="SVGID_51_" d="M66.85,5.14c-1.46,3.86-2.76,7.52-4.27,11.14c-0.24,0.56-1.41,1.11-2.17,1.15
								c-0.81,0.03-2.14-0.4-2.36-0.93c-1.57-3.69-2.89-7.44-4.36-11.36H66.85z"/>
						</defs>
						<clipPath id="SVGID_52_">
							<use xlink:href="#SVGID_51_"  style="overflow:visible;"/>
						</clipPath>
						<g class="st25">
							<defs>
								<rect id="SVGID_53_" x="10.42" y="5.14" width="99.56" height="110.33"/>
							</defs>
							<clipPath id="SVGID_54_">
								<use xlink:href="#SVGID_53_"  style="overflow:visible;"/>
							</clipPath>
							<rect x="46.96" y="-1.59" class="st26" width="26.62" height="25.75"/>
						</g>
					</g>
					<g class="st20">
						<defs>
							<path id="SVGID_55_" d="M52.06,7.42c1.26,3.38,2.25,6.01,3.26,8.67c-2.97,1.15-5.72,2.23-8.76,3.41
								c-1.91-2.17-3.89-4.4-6.33-7.15C44.3,10.64,47.96,9.13,52.06,7.42"/>
						</defs>
						<clipPath id="SVGID_56_">
							<use xlink:href="#SVGID_55_"  style="overflow:visible;"/>
						</clipPath>
						<g class="st27">
							<defs>
								<rect id="SVGID_57_" x="10.42" y="5.14" width="99.56" height="110.33"/>
							</defs>
							<clipPath id="SVGID_58_">
								<use xlink:href="#SVGID_57_"  style="overflow:visible;"/>
							</clipPath>
							<rect x="33.51" y="0.7" class="st28" width="28.54" height="25.53"/>
						</g>
					</g>
					<g class="st20">
						<defs>
							<path id="SVGID_59_" d="M67.97,7.37c4.16,1.76,7.81,3.31,11.83,5.01c-2.42,2.72-4.42,4.95-6.35,7.12
								c-2.98-1.18-5.74-2.26-8.74-3.43C65.69,13.46,66.72,10.77,67.97,7.37"/>
						</defs>
						<clipPath id="SVGID_60_">
							<use xlink:href="#SVGID_59_"  style="overflow:visible;"/>
						</clipPath>
						<g class="st29">
							<defs>
								<rect id="SVGID_61_" x="10.42" y="5.14" width="99.56" height="110.33"/>
							</defs>
							<clipPath id="SVGID_62_">
								<use xlink:href="#SVGID_61_"  style="overflow:visible;"/>
							</clipPath>
							<rect x="57.99" y="0.64" class="st30" width="28.54" height="25.58"/>
						</g>
					</g>
					<g class="st20">
						<defs>
							<path id="SVGID_63_" d="M44.83,20.61c-2.17,2.67-4.13,5.08-6.02,7.4c-2.23-2.02-4.58-4.12-7.36-6.66
								c2.08-2.29,4.39-4.89,7.07-7.84C40.84,16.13,42.83,18.36,44.83,20.61"/>
						</defs>
						<clipPath id="SVGID_64_">
							<use xlink:href="#SVGID_63_"  style="overflow:visible;"/>
						</clipPath>
						<g class="st31">
							<defs>
								<rect id="SVGID_65_" x="10.42" y="5.14" width="99.56" height="110.33"/>
							</defs>
							<clipPath id="SVGID_66_">
								<use xlink:href="#SVGID_65_"  style="overflow:visible;"/>
							</clipPath>
							<rect x="24.72" y="6.8" class="st32" width="26.84" height="27.95"/>
						</g>
					</g>
					<g class="st20">
						<defs>
							<path id="SVGID_67_" d="M88.94,21.58c-2.8,2.32-5.23,4.36-7.71,6.4c-1.83-2.23-3.82-4.68-6.02-7.37
								c1.82-2.04,3.81-4.3,6.19-7.03C83.99,16.34,86.43,18.91,88.94,21.58"/>
						</defs>
						<clipPath id="SVGID_68_">
							<use xlink:href="#SVGID_67_"  style="overflow:visible;"/>
						</clipPath>
						<g class="st33">
							<defs>
								<rect id="SVGID_69_" x="10.42" y="5.14" width="99.56" height="110.33"/>
							</defs>
							<clipPath id="SVGID_70_">
								<use xlink:href="#SVGID_69_"  style="overflow:visible;"/>
							</clipPath>
							<rect x="68.47" y="6.86" class="st34" width="27.19" height="27.85"/>
						</g>
					</g>
					<g class="st20">
						<defs>
							<path id="SVGID_71_" d="M37.05,35.04H26.79c1.01-3.84,1.94-7.4,2.91-11.11C36.26,27.33,38.22,30.33,37.05,35.04"/>
						</defs>
						<clipPath id="SVGID_72_">
							<use xlink:href="#SVGID_71_"  style="overflow:visible;"/>
						</clipPath>
						<g class="st35">
							<defs>
								<rect id="SVGID_73_" x="10.42" y="5.14" width="99.56" height="110.33"/>
							</defs>
							<clipPath id="SVGID_74_">
								<use xlink:href="#SVGID_73_"  style="overflow:visible;"/>
							</clipPath>
							<rect x="20.06" y="17.2" class="st36" width="24.03" height="24.57"/>
						</g>
					</g>
					<g class="st20">
						<defs>
							<path id="SVGID_75_" d="M90.24,23.68c1.06,3.93,2,7.46,3.02,11.3H83.19C81.31,30.27,82.05,29.01,90.24,23.68"/>
						</defs>
						<clipPath id="SVGID_76_">
							<use xlink:href="#SVGID_75_"  style="overflow:visible;"/>
						</clipPath>
						<g class="st37">
							<defs>
								<rect id="SVGID_77_" x="10.42" y="5.14" width="99.56" height="110.33"/>
							</defs>
							<clipPath id="SVGID_78_">
								<use xlink:href="#SVGID_77_"  style="overflow:visible;"/>
							</clipPath>
							<rect x="75.61" y="16.95" class="st38" width="24.38" height="24.75"/>
						</g>
					</g>
					<g class="st20">
						<defs>
							<rect id="SVGID_79_" x="27.26" y="41.11" width="9.84" height="25.51"/>
						</defs>
						<clipPath id="SVGID_80_">
							<use xlink:href="#SVGID_79_"  style="overflow:visible;"/>
						</clipPath>
						<g class="st39">
							<defs>
								<rect id="SVGID_81_" x="10.42" y="5.14" width="99.56" height="110.33"/>
							</defs>
							<clipPath id="SVGID_82_">
								<use xlink:href="#SVGID_81_"  style="overflow:visible;"/>
							</clipPath>
							<rect x="20.53" y="34.38" class="st40" width="23.29" height="38.96"/>
						</g>
					</g>
					<g class="st20">
						<defs>
							<rect id="SVGID_83_" x="82.9" y="41.11" width="9.82" height="42.91"/>
						</defs>
						<clipPath id="SVGID_84_">
							<use xlink:href="#SVGID_83_"  style="overflow:visible;"/>
						</clipPath>
						<g class="st41">
							<defs>
								<rect id="SVGID_85_" x="10.42" y="5.14" width="99.56" height="110.33"/>
							</defs>
							<clipPath id="SVGID_86_">
								<use xlink:href="#SVGID_85_"  style="overflow:visible;"/>
							</clipPath>
							<rect x="76.17" y="34.38" class="st42" width="23.28" height="56.36"/>
						</g>
					</g>
					<g class="st20">
						<defs>
							<polygon id="SVGID_87_" points="38.82,39.22 41.06,37.52 40.28,36.44 23.3,36.44 23.3,36.9 25.33,39.22 							"/>
						</defs>
						<clipPath id="SVGID_88_">
							<use xlink:href="#SVGID_87_"  style="overflow:visible;"/>
						</clipPath>
						<g class="st43">
							<defs>
								<rect id="SVGID_89_" x="10.42" y="5.14" width="99.56" height="110.33"/>
							</defs>
							<clipPath id="SVGID_90_">
								<use xlink:href="#SVGID_89_"  style="overflow:visible;"/>
							</clipPath>
							<rect x="16.58" y="29.71" class="st44" width="31.21" height="16.24"/>
						</g>
					</g>
					<g class="st20">
						<defs>
							<polygon id="SVGID_91_" points="81.16,39.22 78.93,37.52 79.7,36.44 96.7,36.44 96.7,36.9 94.65,39.22 							"/>
						</defs>
						<clipPath id="SVGID_92_">
							<use xlink:href="#SVGID_91_"  style="overflow:visible;"/>
						</clipPath>
						<g class="st45">
							<defs>
								<rect id="SVGID_93_" x="10.42" y="5.14" width="99.56" height="110.33"/>
							</defs>
							<clipPath id="SVGID_94_">
								<use xlink:href="#SVGID_93_"  style="overflow:visible;"/>
							</clipPath>
							<rect x="72.21" y="29.71" class="st46" width="31.22" height="16.24"/>
						</g>
					</g>
				</g>
			</g>
		</g>
	</g>
</g>
</svg>
